
<svg version="1.1" id="Layer_1" xmlns="http://www.w3.org/2000/svg" xmlns:xlink="http://www.w3.org/1999/xlink" x="0px" y="0px"
	 viewBox="0 0 512 512" style="enable-background:new 0 0 512 512;" xml:space="preserve">
<path style="fill:#2196f3;" d="M277.918,79.145c-12.843-10.167-30.991-10.167-43.834,0L44.138,229.517L256,397.241l211.862-167.724
	L277.918,79.145z"/>
<path style="fill:#EFF2FA;" d="M441.379,0H70.621c-4.875,0-8.828,3.953-8.828,8.828v361.931h388.414V8.828
	C450.207,3.953,446.254,0,441.379,0z"/>
<path style="fill:#4dabf5;" d="M44.138,229.517L256,397.241l211.862-167.724v264.828c0,9.751-7.904,17.655-17.655,17.655H61.793
	c-9.751,0-17.655-7.904-17.655-17.655V229.517z"/>
<path style="fill:#2196f3;" d="M294.355,374.641c-22.475-17.793-54.236-17.793-76.711,0L49.976,507.379
	c3.133,2.844,7.252,4.621,11.817,4.621h388.414c4.565,0,8.684-1.778,11.817-4.621L294.355,374.641z"/>
<path style="fill:#1769aa;" d="M370.735,146.367c-0.476-9.081-8.627-15.891-17.72-15.891H286.56
	c18.515-13.038,31.934-31.913,35.347-52.2c1.423-8.458-3.065-17.177-11.243-19.765c-10.169-3.219-20.312,3.475-21.781,13.567
	c-2.433,16.702-21.375,37.451-47.737,41.837c-4.075,0.678-7.742,2.857-10.337,6.071c-18.946,23.462-45.429,30.082-45.429,30.082
	V259.23h32.918c8.326,0,16.638,0.687,24.851,2.057l8.91,1.485c8.213,1.368,16.524,2.057,24.851,2.057h59.311
	c9.094,0,17.245-6.809,17.72-15.891c0.508-9.685-7.196-17.697-16.77-17.697h4.648c9.094,0,17.245-6.809,17.72-15.891
	c0.508-9.685-7.196-17.697-16.77-17.697h4.648c9.094,0,17.245-6.809,17.72-15.891c0.508-9.685-7.196-17.697-16.77-17.697h5.598
	C363.539,164.064,371.242,156.052,370.735,146.367z"/>
<path style="fill:#2196f3;" d="M211.862,137.369c-13.974,9.572-26.483,12.7-26.483,12.7V259.23h26.483V137.369z"/>
<path style="fill:#2196f3;" d="M188.394,264.828h-38.325c-4.875,0-8.828-3.953-8.828-8.828V150.499c0-4.875,3.953-8.828,8.828-8.828
	h38.325c4.875,0,8.828,3.953,8.828,8.828V256C197.222,260.875,193.269,264.828,188.394,264.828z"/>
<circle style="fill:#EFF2FA;" cx="169.236" cy="236.833" r="11.196"/>
</svg>
